<?xml version="1.0" encoding="utf-8" standalone="no"?>
<!DOCTYPE svg PUBLIC "-//W3C//DTD SVG 1.1//EN"
  "http://www.w3.org/Graphics/SVG/1.1/DTD/svg11.dtd">
<svg xmlns:xlink="http://www.w3.org/1999/xlink" width="914.4pt" height="367.2pt" viewBox="0 0 914.4 367.2" xmlns="http://www.w3.org/2000/svg" version="1.1">
 <metadata>
  <rdf:RDF xmlns:dc="http://purl.org/dc/elements/1.1/" xmlns:cc="http://creativecommons.org/ns#" xmlns:rdf="http://www.w3.org/1999/02/22-rdf-syntax-ns#">
   <cc:Work>
    <dc:type rdf:resource="http://purl.org/dc/dcmitype/StillImage"/>
    <dc:date>2026-06-16T11:33:41.197936</dc:date>
    <dc:format>image/svg+xml</dc:format>
    <dc:creator>
     <cc:Agent>
      <dc:title>Matplotlib v3.10.8, https://matplotlib.org/</dc:title>
     </cc:Agent>
    </dc:creator>
   </cc:Work>
  </rdf:RDF>
 </metadata>
 <defs>
  <style type="text/css">*{stroke-linejoin: round; stroke-linecap: butt}</style>
 </defs>
 <g id="figure_1">
  <g id="patch_1">
   <path d="M 0 367.2
L 914.4 367.2
L 914.4 0
L 0 0
z
" style="fill: #ffffff"/>
  </g>
  <g id="axes_1">
   <g id="patch_2">
    <path d="M 36.45 165.2544
L 255.45 165.2544
Q 261.45 165.2544 261.45 159.6096
L 261.45 55.8864
Q 261.45 50.2416 255.45 50.2416
L 36.45 50.2416
Q 30.45 50.2416 30.45 55.8864
L 30.45 159.6096
Q 30.45 165.2544 36.45 165.2544
z
" clip-path="url(#p8a86ce94ad)" style="fill: #4c78a8; opacity: 0.13; stroke: #4c78a8; stroke-width: 1.1; stroke-linejoin: miter"/>
   </g>
   <g id="patch_3">
    <path d="M 36.45 309.9024
L 255.45 309.9024
Q 261.45 309.9024 261.45 304.2576
L 261.45 200.5344
Q 261.45 194.8896 255.45 194.8896
L 36.45 194.8896
Q 30.45 194.8896 30.45 200.5344
L 30.45 304.2576
Q 30.45 309.9024 36.45 309.9024
z
" clip-path="url(#p8a86ce94ad)" style="fill: #f58518; opacity: 0.13; stroke: #f58518; stroke-width: 1.1; stroke-linejoin: miter"/>
   </g>
   <g id="patch_4">
    <path d="M 336.45 267.5664
L 566.7 267.5664
Q 572.7 267.5664 572.7 261.9216
L 572.7 87.6384
Q 572.7 81.9936 566.7 81.9936
L 336.45 81.9936
Q 330.45 81.9936 330.45 87.6384
L 330.45 261.9216
Q 330.45 267.5664 336.45 267.5664
z
" clip-path="url(#p8a86ce94ad)" style="fill: #6f4e7c; opacity: 0.13; stroke: #6f4e7c; stroke-width: 1.1; stroke-linejoin: miter"/>
   </g>
   <g id="patch_5">
    <path d="M 651.45 267.5664
L 877.95 267.5664
Q 883.95 267.5664 883.95 261.9216
L 883.95 87.6384
Q 883.95 81.9936 877.95 81.9936
L 651.45 81.9936
Q 645.45 81.9936 645.45 87.6384
L 645.45 261.9216
Q 645.45 267.5664 651.45 267.5664
z
" clip-path="url(#p8a86ce94ad)" style="fill: #2f6f5e; opacity: 0.13; stroke: #2f6f5e; stroke-width: 1.1; stroke-linejoin: miter"/>
   </g>
   <g id="patch_6">
    <path d="M 267.284839 111.003282
Q 295.950526 143.028587 323.721415 174.054224
" clip-path="url(#p8a86ce94ad)" style="fill: none; stroke: #555555; stroke-width: 1.2; stroke-linecap: round"/>
    <path d="M 322.072838 168.014175
L 323.721415 174.054224
L 317.900229 171.749056
z
" clip-path="url(#p8a86ce94ad)" style="fill: #555555; stroke: #555555; stroke-width: 1.2; stroke-linecap: round"/>
   </g>
   <g id="patch_7">
    <path d="M 267.174976 252.575372
Q 295.951743 215.349746 323.907961 179.185581
" clip-path="url(#p8a86ce94ad)" style="fill: none; stroke: #555555; stroke-width: 1.2; stroke-linecap: round"/>
    <path d="M 318.267731 181.903632
L 323.907961 179.185581
L 322.698264 185.328596
z
" clip-path="url(#p8a86ce94ad)" style="fill: #555555; stroke: #555555; stroke-width: 1.2; stroke-linecap: round"/>
   </g>
   <g id="patch_8">
    <path d="M 582.953174 176.544
Q 610.951581 176.544 637.608347 176.544
" clip-path="url(#p8a86ce94ad)" style="fill: none; stroke: #555555; stroke-width: 1.2; stroke-linecap: round"/>
    <path d="M 632.008347 173.744
L 637.608347 176.544
L 632.008347 179.344
z
" clip-path="url(#p8a86ce94ad)" style="fill: #555555; stroke: #555555; stroke-width: 1.2; stroke-linecap: round"/>
   </g>
   <g id="text_1">
    <!-- Pretraining corpora -->
    <g style="fill: #4c78a8" transform="translate(46.95 92.197247) scale(0.125 -0.125)">
     <defs>
      <path id="DejaVuSans-Bold-50" d="M 588 4666
L 2584 4666
Q 3475 4666 3951 4270
Q 4428 3875 4428 3144
Q 4428 2409 3951 2014
Q 3475 1619 2584 1619
L 1791 1619
L 1791 0
L 588 0
L 588 4666
z
M 1791 3794
L 1791 2491
L 2456 2491
Q 2806 2491 2997 2661
Q 3188 2831 3188 3144
Q 3188 3456 2997 3625
Q 2806 3794 2456 3794
L 1791 3794
z
" transform="scale(0.015625)"/>
      <path id="DejaVuSans-Bold-72" d="M 3138 2547
Q 2991 2616 2845 2648
Q 2700 2681 2553 2681
Q 2122 2681 1889 2404
Q 1656 2128 1656 1613
L 1656 0
L 538 0
L 538 3500
L 1656 3500
L 1656 2925
Q 1872 3269 2151 3426
Q 2431 3584 2822 3584
Q 2878 3584 2943 3579
Q 3009 3575 3134 3559
L 3138 2547
z
" transform="scale(0.015625)"/>
      <path id="DejaVuSans-Bold-65" d="M 4031 1759
L 4031 1441
L 1416 1441
Q 1456 1047 1700 850
Q 1944 653 2381 653
Q 2734 653 3104 758
Q 3475 863 3866 1075
L 3866 213
Q 3469 63 3072 -14
Q 2675 -91 2278 -91
Q 1328 -91 801 392
Q 275 875 275 1747
Q 275 2603 792 3093
Q 1309 3584 2216 3584
Q 3041 3584 3536 3087
Q 4031 2591 4031 1759
z
M 2881 2131
Q 2881 2450 2695 2645
Q 2509 2841 2209 2841
Q 1884 2841 1681 2658
Q 1478 2475 1428 2131
L 2881 2131
z
" transform="scale(0.015625)"/>
      <path id="DejaVuSans-Bold-74" d="M 1759 4494
L 1759 3500
L 2913 3500
L 2913 2700
L 1759 2700
L 1759 1216
Q 1759 972 1856 886
Q 1953 800 2241 800
L 2816 800
L 2816 0
L 1856 0
Q 1194 0 917 276
Q 641 553 641 1216
L 641 2700
L 84 2700
L 84 3500
L 641 3500
L 641 4494
L 1759 4494
z
" transform="scale(0.015625)"/>
      <path id="DejaVuSans-Bold-61" d="M 2106 1575
Q 1756 1575 1579 1456
Q 1403 1338 1403 1106
Q 1403 894 1545 773
Q 1688 653 1941 653
Q 2256 653 2472 879
Q 2688 1106 2688 1447
L 2688 1575
L 2106 1575
z
M 3816 1997
L 3816 0
L 2688 0
L 2688 519
Q 2463 200 2181 54
Q 1900 -91 1497 -91
Q 953 -91 614 226
Q 275 544 275 1050
Q 275 1666 698 1953
Q 1122 2241 2028 2241
L 2688 2241
L 2688 2328
Q 2688 2594 2478 2717
Q 2269 2841 1825 2841
Q 1466 2841 1156 2769
Q 847 2697 581 2553
L 581 3406
Q 941 3494 1303 3539
Q 1666 3584 2028 3584
Q 2975 3584 3395 3211
Q 3816 2838 3816 1997
z
" transform="scale(0.015625)"/>
      <path id="DejaVuSans-Bold-69" d="M 538 3500
L 1656 3500
L 1656 0
L 538 0
L 538 3500
z
M 538 4863
L 1656 4863
L 1656 3950
L 538 3950
L 538 4863
z
" transform="scale(0.015625)"/>
      <path id="DejaVuSans-Bold-6e" d="M 4056 2131
L 4056 0
L 2931 0
L 2931 347
L 2931 1631
Q 2931 2084 2911 2256
Q 2891 2428 2841 2509
Q 2775 2619 2662 2680
Q 2550 2741 2406 2741
Q 2056 2741 1856 2470
Q 1656 2200 1656 1722
L 1656 0
L 538 0
L 538 3500
L 1656 3500
L 1656 2988
Q 1909 3294 2193 3439
Q 2478 3584 2822 3584
Q 3428 3584 3742 3212
Q 4056 2841 4056 2131
z
" transform="scale(0.015625)"/>
      <path id="DejaVuSans-Bold-67" d="M 2919 594
Q 2688 288 2409 144
Q 2131 0 1766 0
Q 1125 0 706 504
Q 288 1009 288 1791
Q 288 2575 706 3076
Q 1125 3578 1766 3578
Q 2131 3578 2409 3434
Q 2688 3291 2919 2981
L 2919 3500
L 4044 3500
L 4044 353
Q 4044 -491 3511 -936
Q 2978 -1381 1966 -1381
Q 1638 -1381 1331 -1331
Q 1025 -1281 716 -1178
L 716 -306
Q 1009 -475 1290 -558
Q 1572 -641 1856 -641
Q 2406 -641 2662 -400
Q 2919 -159 2919 353
L 2919 594
z
M 2181 2772
Q 1834 2772 1640 2515
Q 1447 2259 1447 1791
Q 1447 1309 1634 1061
Q 1822 813 2181 813
Q 2531 813 2725 1069
Q 2919 1325 2919 1791
Q 2919 2259 2725 2515
Q 2531 2772 2181 2772
z
" transform="scale(0.015625)"/>
      <path id="DejaVuSans-Bold-20" transform="scale(0.015625)"/>
      <path id="DejaVuSans-Bold-63" d="M 3366 3391
L 3366 2478
Q 3138 2634 2908 2709
Q 2678 2784 2431 2784
Q 1963 2784 1702 2511
Q 1441 2238 1441 1747
Q 1441 1256 1702 982
Q 1963 709 2431 709
Q 2694 709 2930 787
Q 3166 866 3366 1019
L 3366 103
Q 3103 6 2833 -42
Q 2563 -91 2291 -91
Q 1344 -91 809 395
Q 275 881 275 1747
Q 275 2613 809 3098
Q 1344 3584 2291 3584
Q 2566 3584 2833 3536
Q 3100 3488 3366 3391
z
" transform="scale(0.015625)"/>
      <path id="DejaVuSans-Bold-6f" d="M 2203 2784
Q 1831 2784 1636 2517
Q 1441 2250 1441 1747
Q 1441 1244 1636 976
Q 1831 709 2203 709
Q 2569 709 2762 976
Q 2956 1244 2956 1747
Q 2956 2250 2762 2517
Q 2569 2784 2203 2784
z
M 2203 3584
Q 3106 3584 3614 3096
Q 4122 2609 4122 1747
Q 4122 884 3614 396
Q 3106 -91 2203 -91
Q 1297 -91 786 396
Q 275 884 275 1747
Q 275 2609 786 3096
Q 1297 3584 2203 3584
z
" transform="scale(0.015625)"/>
      <path id="DejaVuSans-Bold-70" d="M 1656 506
L 1656 -1331
L 538 -1331
L 538 3500
L 1656 3500
L 1656 2988
Q 1888 3294 2169 3439
Q 2450 3584 2816 3584
Q 3463 3584 3878 3070
Q 4294 2556 4294 1747
Q 4294 938 3878 423
Q 3463 -91 2816 -91
Q 2450 -91 2169 54
Q 1888 200 1656 506
z
M 2400 2772
Q 2041 2772 1848 2508
Q 1656 2244 1656 1747
Q 1656 1250 1848 986
Q 2041 722 2400 722
Q 2759 722 2948 984
Q 3138 1247 3138 1747
Q 3138 2247 2948 2509
Q 2759 2772 2400 2772
z
" transform="scale(0.015625)"/>
     </defs>
     <use xlink:href="#DejaVuSans-Bold-50"/>
     <use xlink:href="#DejaVuSans-Bold-72" transform="translate(73.291016 0)"/>
     <use xlink:href="#DejaVuSans-Bold-65" transform="translate(122.607422 0)"/>
     <use xlink:href="#DejaVuSans-Bold-74" transform="translate(190.429688 0)"/>
     <use xlink:href="#DejaVuSans-Bold-72" transform="translate(238.232422 0)"/>
     <use xlink:href="#DejaVuSans-Bold-61" transform="translate(287.548828 0)"/>
     <use xlink:href="#DejaVuSans-Bold-69" transform="translate(355.029297 0)"/>
     <use xlink:href="#DejaVuSans-Bold-6e" transform="translate(389.306641 0)"/>
     <use xlink:href="#DejaVuSans-Bold-69" transform="translate(460.498047 0)"/>
     <use xlink:href="#DejaVuSans-Bold-6e" transform="translate(494.775391 0)"/>
     <use xlink:href="#DejaVuSans-Bold-67" transform="translate(565.966797 0)"/>
     <use xlink:href="#DejaVuSans-Bold-20" transform="translate(637.548828 0)"/>
     <use xlink:href="#DejaVuSans-Bold-63" transform="translate(672.363281 0)"/>
     <use xlink:href="#DejaVuSans-Bold-6f" transform="translate(731.640625 0)"/>
     <use xlink:href="#DejaVuSans-Bold-72" transform="translate(800.341797 0)"/>
     <use xlink:href="#DejaVuSans-Bold-70" transform="translate(849.658203 0)"/>
     <use xlink:href="#DejaVuSans-Bold-6f" transform="translate(921.240234 0)"/>
     <use xlink:href="#DejaVuSans-Bold-72" transform="translate(989.941406 0)"/>
     <use xlink:href="#DejaVuSans-Bold-61" transform="translate(1039.257812 0)"/>
    </g>
   </g>
   <g id="text_2">
    <!-- broad source-derived mixtures -->
    <g style="fill: #222222" transform="translate(46.95 123.8625) scale(0.096 -0.096)">
     <defs>
      <path id="DejaVuSans-62" d="M 3116 1747
Q 3116 2381 2855 2742
Q 2594 3103 2138 3103
Q 1681 3103 1420 2742
Q 1159 2381 1159 1747
Q 1159 1113 1420 752
Q 1681 391 2138 391
Q 2594 391 2855 752
Q 3116 1113 3116 1747
z
M 1159 2969
Q 1341 3281 1617 3432
Q 1894 3584 2278 3584
Q 2916 3584 3314 3078
Q 3713 2572 3713 1747
Q 3713 922 3314 415
Q 2916 -91 2278 -91
Q 1894 -91 1617 61
Q 1341 213 1159 525
L 1159 0
L 581 0
L 581 4863
L 1159 4863
L 1159 2969
z
" transform="scale(0.015625)"/>
      <path id="DejaVuSans-72" d="M 2631 2963
Q 2534 3019 2420 3045
Q 2306 3072 2169 3072
Q 1681 3072 1420 2755
Q 1159 2438 1159 1844
L 1159 0
L 581 0
L 581 3500
L 1159 3500
L 1159 2956
Q 1341 3275 1631 3429
Q 1922 3584 2338 3584
Q 2397 3584 2469 3576
Q 2541 3569 2628 3553
L 2631 2963
z
" transform="scale(0.015625)"/>
      <path id="DejaVuSans-6f" d="M 1959 3097
Q 1497 3097 1228 2736
Q 959 2375 959 1747
Q 959 1119 1226 758
Q 1494 397 1959 397
Q 2419 397 2687 759
Q 2956 1122 2956 1747
Q 2956 2369 2687 2733
Q 2419 3097 1959 3097
z
M 1959 3584
Q 2709 3584 3137 3096
Q 3566 2609 3566 1747
Q 3566 888 3137 398
Q 2709 -91 1959 -91
Q 1206 -91 779 398
Q 353 888 353 1747
Q 353 2609 779 3096
Q 1206 3584 1959 3584
z
" transform="scale(0.015625)"/>
      <path id="DejaVuSans-61" d="M 2194 1759
Q 1497 1759 1228 1600
Q 959 1441 959 1056
Q 959 750 1161 570
Q 1363 391 1709 391
Q 2188 391 2477 730
Q 2766 1069 2766 1631
L 2766 1759
L 2194 1759
z
M 3341 1997
L 3341 0
L 2766 0
L 2766 531
Q 2569 213 2275 61
Q 1981 -91 1556 -91
Q 1019 -91 701 211
Q 384 513 384 1019
Q 384 1609 779 1909
Q 1175 2209 1959 2209
L 2766 2209
L 2766 2266
Q 2766 2663 2505 2880
Q 2244 3097 1772 3097
Q 1472 3097 1187 3025
Q 903 2953 641 2809
L 641 3341
Q 956 3463 1253 3523
Q 1550 3584 1831 3584
Q 2591 3584 2966 3190
Q 3341 2797 3341 1997
z
" transform="scale(0.015625)"/>
      <path id="DejaVuSans-64" d="M 2906 2969
L 2906 4863
L 3481 4863
L 3481 0
L 2906 0
L 2906 525
Q 2725 213 2448 61
Q 2172 -91 1784 -91
Q 1150 -91 751 415
Q 353 922 353 1747
Q 353 2572 751 3078
Q 1150 3584 1784 3584
Q 2172 3584 2448 3432
Q 2725 3281 2906 2969
z
M 947 1747
Q 947 1113 1208 752
Q 1469 391 1925 391
Q 2381 391 2643 752
Q 2906 1113 2906 1747
Q 2906 2381 2643 2742
Q 2381 3103 1925 3103
Q 1469 3103 1208 2742
Q 947 2381 947 1747
z
" transform="scale(0.015625)"/>
      <path id="DejaVuSans-20" transform="scale(0.015625)"/>
      <path id="DejaVuSans-73" d="M 2834 3397
L 2834 2853
Q 2591 2978 2328 3040
Q 2066 3103 1784 3103
Q 1356 3103 1142 2972
Q 928 2841 928 2578
Q 928 2378 1081 2264
Q 1234 2150 1697 2047
L 1894 2003
Q 2506 1872 2764 1633
Q 3022 1394 3022 966
Q 3022 478 2636 193
Q 2250 -91 1575 -91
Q 1294 -91 989 -36
Q 684 19 347 128
L 347 722
Q 666 556 975 473
Q 1284 391 1588 391
Q 1994 391 2212 530
Q 2431 669 2431 922
Q 2431 1156 2273 1281
Q 2116 1406 1581 1522
L 1381 1569
Q 847 1681 609 1914
Q 372 2147 372 2553
Q 372 3047 722 3315
Q 1072 3584 1716 3584
Q 2034 3584 2315 3537
Q 2597 3491 2834 3397
z
" transform="scale(0.015625)"/>
      <path id="DejaVuSans-75" d="M 544 1381
L 544 3500
L 1119 3500
L 1119 1403
Q 1119 906 1312 657
Q 1506 409 1894 409
Q 2359 409 2629 706
Q 2900 1003 2900 1516
L 2900 3500
L 3475 3500
L 3475 0
L 2900 0
L 2900 538
Q 2691 219 2414 64
Q 2138 -91 1772 -91
Q 1169 -91 856 284
Q 544 659 544 1381
z
M 1991 3584
L 1991 3584
z
" transform="scale(0.015625)"/>
      <path id="DejaVuSans-63" d="M 3122 3366
L 3122 2828
Q 2878 2963 2633 3030
Q 2388 3097 2138 3097
Q 1578 3097 1268 2742
Q 959 2388 959 1747
Q 959 1106 1268 751
Q 1578 397 2138 397
Q 2388 397 2633 464
Q 2878 531 3122 666
L 3122 134
Q 2881 22 2623 -34
Q 2366 -91 2075 -91
Q 1284 -91 818 406
Q 353 903 353 1747
Q 353 2603 823 3093
Q 1294 3584 2113 3584
Q 2378 3584 2631 3529
Q 2884 3475 3122 3366
z
" transform="scale(0.015625)"/>
      <path id="DejaVuSans-65" d="M 3597 1894
L 3597 1613
L 953 1613
Q 991 1019 1311 708
Q 1631 397 2203 397
Q 2534 397 2845 478
Q 3156 559 3463 722
L 3463 178
Q 3153 47 2828 -22
Q 2503 -91 2169 -91
Q 1331 -91 842 396
Q 353 884 353 1716
Q 353 2575 817 3079
Q 1281 3584 2069 3584
Q 2775 3584 3186 3129
Q 3597 2675 3597 1894
z
M 3022 2063
Q 3016 2534 2758 2815
Q 2500 3097 2075 3097
Q 1594 3097 1305 2825
Q 1016 2553 972 2059
L 3022 2063
z
" transform="scale(0.015625)"/>
      <path id="DejaVuSans-2d" d="M 313 2009
L 1997 2009
L 1997 1497
L 313 1497
L 313 2009
z
" transform="scale(0.015625)"/>
      <path id="DejaVuSans-69" d="M 603 3500
L 1178 3500
L 1178 0
L 603 0
L 603 3500
z
M 603 4863
L 1178 4863
L 1178 4134
L 603 4134
L 603 4863
z
" transform="scale(0.015625)"/>
      <path id="DejaVuSans-76" d="M 191 3500
L 800 3500
L 1894 563
L 2988 3500
L 3597 3500
L 2284 0
L 1503 0
L 191 3500
z
" transform="scale(0.015625)"/>
      <path id="DejaVuSans-6d" d="M 3328 2828
Q 3544 3216 3844 3400
Q 4144 3584 4550 3584
Q 5097 3584 5394 3201
Q 5691 2819 5691 2113
L 5691 0
L 5113 0
L 5113 2094
Q 5113 2597 4934 2840
Q 4756 3084 4391 3084
Q 3944 3084 3684 2787
Q 3425 2491 3425 1978
L 3425 0
L 2847 0
L 2847 2094
Q 2847 2600 2669 2842
Q 2491 3084 2119 3084
Q 1678 3084 1418 2786
Q 1159 2488 1159 1978
L 1159 0
L 581 0
L 581 3500
L 1159 3500
L 1159 2956
Q 1356 3278 1631 3431
Q 1906 3584 2284 3584
Q 2666 3584 2933 3390
Q 3200 3197 3328 2828
z
" transform="scale(0.015625)"/>
      <path id="DejaVuSans-78" d="M 3513 3500
L 2247 1797
L 3578 0
L 2900 0
L 1881 1375
L 863 0
L 184 0
L 1544 1831
L 300 3500
L 978 3500
L 1906 2253
L 2834 3500
L 3513 3500
z
" transform="scale(0.015625)"/>
      <path id="DejaVuSans-74" d="M 1172 4494
L 1172 3500
L 2356 3500
L 2356 3053
L 1172 3053
L 1172 1153
Q 1172 725 1289 603
Q 1406 481 1766 481
L 2356 481
L 2356 0
L 1766 0
Q 1100 0 847 248
Q 594 497 594 1153
L 594 3053
L 172 3053
L 172 3500
L 594 3500
L 594 4494
L 1172 4494
z
" transform="scale(0.015625)"/>
     </defs>
     <use xlink:href="#DejaVuSans-62"/>
     <use xlink:href="#DejaVuSans-72" transform="translate(63.476562 0)"/>
     <use xlink:href="#DejaVuSans-6f" transform="translate(102.339844 0)"/>
     <use xlink:href="#DejaVuSans-61" transform="translate(163.521484 0)"/>
     <use xlink:href="#DejaVuSans-64" transform="translate(224.800781 0)"/>
     <use xlink:href="#DejaVuSans-20" transform="translate(288.277344 0)"/>
     <use xlink:href="#DejaVuSans-73" transform="translate(320.064453 0)"/>
     <use xlink:href="#DejaVuSans-6f" transform="translate(372.164062 0)"/>
     <use xlink:href="#DejaVuSans-75" transform="translate(433.345703 0)"/>
     <use xlink:href="#DejaVuSans-72" transform="translate(496.724609 0)"/>
     <use xlink:href="#DejaVuSans-63" transform="translate(535.587891 0)"/>
     <use xlink:href="#DejaVuSans-65" transform="translate(590.568359 0)"/>
     <use xlink:href="#DejaVuSans-2d" transform="translate(652.091797 0)"/>
     <use xlink:href="#DejaVuSans-64" transform="translate(688.175781 0)"/>
     <use xlink:href="#DejaVuSans-65" transform="translate(751.652344 0)"/>
     <use xlink:href="#DejaVuSans-72" transform="translate(813.175781 0)"/>
     <use xlink:href="#DejaVuSans-69" transform="translate(854.289062 0)"/>
     <use xlink:href="#DejaVuSans-76" transform="translate(882.072266 0)"/>
     <use xlink:href="#DejaVuSans-65" transform="translate(941.251953 0)"/>
     <use xlink:href="#DejaVuSans-64" transform="translate(1002.775391 0)"/>
     <use xlink:href="#DejaVuSans-20" transform="translate(1066.251953 0)"/>
     <use xlink:href="#DejaVuSans-6d" transform="translate(1098.039062 0)"/>
     <use xlink:href="#DejaVuSans-69" transform="translate(1195.451172 0)"/>
     <use xlink:href="#DejaVuSans-78" transform="translate(1223.234375 0)"/>
     <use xlink:href="#DejaVuSans-74" transform="translate(1282.414062 0)"/>
     <use xlink:href="#DejaVuSans-75" transform="translate(1321.623047 0)"/>
     <use xlink:href="#DejaVuSans-72" transform="translate(1385.001953 0)"/>
     <use xlink:href="#DejaVuSans-65" transform="translate(1423.865234 0)"/>
     <use xlink:href="#DejaVuSans-73" transform="translate(1485.388672 0)"/>
    </g>
    <!-- compact within-panel geometry -->
    <g style="fill: #222222" transform="translate(46.95 135.19596) scale(0.096 -0.096)">
     <defs>
      <path id="DejaVuSans-70" d="M 1159 525
L 1159 -1331
L 581 -1331
L 581 3500
L 1159 3500
L 1159 2969
Q 1341 3281 1617 3432
Q 1894 3584 2278 3584
Q 2916 3584 3314 3078
Q 3713 2572 3713 1747
Q 3713 922 3314 415
Q 2916 -91 2278 -91
Q 1894 -91 1617 61
Q 1341 213 1159 525
z
M 3116 1747
Q 3116 2381 2855 2742
Q 2594 3103 2138 3103
Q 1681 3103 1420 2742
Q 1159 2381 1159 1747
Q 1159 1113 1420 752
Q 1681 391 2138 391
Q 2594 391 2855 752
Q 3116 1113 3116 1747
z
" transform="scale(0.015625)"/>
      <path id="DejaVuSans-77" d="M 269 3500
L 844 3500
L 1563 769
L 2278 3500
L 2956 3500
L 3675 769
L 4391 3500
L 4966 3500
L 4050 0
L 3372 0
L 2619 2869
L 1863 0
L 1184 0
L 269 3500
z
" transform="scale(0.015625)"/>
      <path id="DejaVuSans-68" d="M 3513 2113
L 3513 0
L 2938 0
L 2938 2094
Q 2938 2591 2744 2837
Q 2550 3084 2163 3084
Q 1697 3084 1428 2787
Q 1159 2491 1159 1978
L 1159 0
L 581 0
L 581 4863
L 1159 4863
L 1159 2956
Q 1366 3272 1645 3428
Q 1925 3584 2291 3584
Q 2894 3584 3203 3211
Q 3513 2838 3513 2113
z
" transform="scale(0.015625)"/>
      <path id="DejaVuSans-6e" d="M 3513 2113
L 3513 0
L 2938 0
L 2938 2094
Q 2938 2591 2744 2837
Q 2550 3084 2163 3084
Q 1697 3084 1428 2787
Q 1159 2491 1159 1978
L 1159 0
L 581 0
L 581 3500
L 1159 3500
L 1159 2956
Q 1366 3272 1645 3428
Q 1925 3584 2291 3584
Q 2894 3584 3203 3211
Q 3513 2838 3513 2113
z
" transform="scale(0.015625)"/>
      <path id="DejaVuSans-6c" d="M 603 4863
L 1178 4863
L 1178 0
L 603 0
L 603 4863
z
" transform="scale(0.015625)"/>
      <path id="DejaVuSans-67" d="M 2906 1791
Q 2906 2416 2648 2759
Q 2391 3103 1925 3103
Q 1463 3103 1205 2759
Q 947 2416 947 1791
Q 947 1169 1205 825
Q 1463 481 1925 481
Q 2391 481 2648 825
Q 2906 1169 2906 1791
z
M 3481 434
Q 3481 -459 3084 -895
Q 2688 -1331 1869 -1331
Q 1566 -1331 1297 -1286
Q 1028 -1241 775 -1147
L 775 -588
Q 1028 -725 1275 -790
Q 1522 -856 1778 -856
Q 2344 -856 2625 -561
Q 2906 -266 2906 331
L 2906 616
Q 2728 306 2450 153
Q 2172 0 1784 0
Q 1141 0 747 490
Q 353 981 353 1791
Q 353 2603 747 3093
Q 1141 3584 1784 3584
Q 2172 3584 2450 3431
Q 2728 3278 2906 2969
L 2906 3500
L 3481 3500
L 3481 434
z
" transform="scale(0.015625)"/>
      <path id="DejaVuSans-79" d="M 2059 -325
Q 1816 -950 1584 -1140
Q 1353 -1331 966 -1331
L 506 -1331
L 506 -850
L 844 -850
Q 1081 -850 1212 -737
Q 1344 -625 1503 -206
L 1606 56
L 191 3500
L 800 3500
L 1894 763
L 2988 3500
L 3597 3500
L 2059 -325
z
" transform="scale(0.015625)"/>
     </defs>
     <use xlink:href="#DejaVuSans-63"/>
     <use xlink:href="#DejaVuSans-6f" transform="translate(54.980469 0)"/>
     <use xlink:href="#DejaVuSans-6d" transform="translate(116.162109 0)"/>
     <use xlink:href="#DejaVuSans-70" transform="translate(213.574219 0)"/>
     <use xlink:href="#DejaVuSans-61" transform="translate(277.050781 0)"/>
     <use xlink:href="#DejaVuSans-63" transform="translate(338.330078 0)"/>
     <use xlink:href="#DejaVuSans-74" transform="translate(393.310547 0)"/>
     <use xlink:href="#DejaVuSans-20" transform="translate(432.519531 0)"/>
     <use xlink:href="#DejaVuSans-77" transform="translate(464.306641 0)"/>
     <use xlink:href="#DejaVuSans-69" transform="translate(546.09375 0)"/>
     <use xlink:href="#DejaVuSans-74" transform="translate(573.876953 0)"/>
     <use xlink:href="#DejaVuSans-68" transform="translate(613.085938 0)"/>
     <use xlink:href="#DejaVuSans-69" transform="translate(676.464844 0)"/>
     <use xlink:href="#DejaVuSans-6e" transform="translate(704.248047 0)"/>
     <use xlink:href="#DejaVuSans-2d" transform="translate(767.626953 0)"/>
     <use xlink:href="#DejaVuSans-70" transform="translate(803.710938 0)"/>
     <use xlink:href="#DejaVuSans-61" transform="translate(867.1875 0)"/>
     <use xlink:href="#DejaVuSans-6e" transform="translate(928.466797 0)"/>
     <use xlink:href="#DejaVuSans-65" transform="translate(991.845703 0)"/>
     <use xlink:href="#DejaVuSans-6c" transform="translate(1053.369141 0)"/>
     <use xlink:href="#DejaVuSans-20" transform="translate(1081.152344 0)"/>
     <use xlink:href="#DejaVuSans-67" transform="translate(1112.939453 0)"/>
     <use xlink:href="#DejaVuSans-65" transform="translate(1176.416016 0)"/>
     <use xlink:href="#DejaVuSans-6f" transform="translate(1237.939453 0)"/>
     <use xlink:href="#DejaVuSans-6d" transform="translate(1299.121094 0)"/>
     <use xlink:href="#DejaVuSans-65" transform="translate(1396.533203 0)"/>
     <use xlink:href="#DejaVuSans-74" transform="translate(1458.056641 0)"/>
     <use xlink:href="#DejaVuSans-72" transform="translate(1497.265625 0)"/>
     <use xlink:href="#DejaVuSans-79" transform="translate(1538.378906 0)"/>
    </g>
    <!-- lower concentration -->
    <g style="fill: #222222" transform="translate(46.95 146.52942) scale(0.096 -0.096)">
     <use xlink:href="#DejaVuSans-6c"/>
     <use xlink:href="#DejaVuSans-6f" transform="translate(27.783203 0)"/>
     <use xlink:href="#DejaVuSans-77" transform="translate(88.964844 0)"/>
     <use xlink:href="#DejaVuSans-65" transform="translate(170.751953 0)"/>
     <use xlink:href="#DejaVuSans-72" transform="translate(232.275391 0)"/>
     <use xlink:href="#DejaVuSans-20" transform="translate(273.388672 0)"/>
     <use xlink:href="#DejaVuSans-63" transform="translate(305.175781 0)"/>
     <use xlink:href="#DejaVuSans-6f" transform="translate(360.15625 0)"/>
     <use xlink:href="#DejaVuSans-6e" transform="translate(421.337891 0)"/>
     <use xlink:href="#DejaVuSans-63" transform="translate(484.716797 0)"/>
     <use xlink:href="#DejaVuSans-65" transform="translate(539.697266 0)"/>
     <use xlink:href="#DejaVuSans-6e" transform="translate(601.220703 0)"/>
     <use xlink:href="#DejaVuSans-74" transform="translate(664.599609 0)"/>
     <use xlink:href="#DejaVuSans-72" transform="translate(703.808594 0)"/>
     <use xlink:href="#DejaVuSans-61" transform="translate(744.921875 0)"/>
     <use xlink:href="#DejaVuSans-74" transform="translate(806.201172 0)"/>
     <use xlink:href="#DejaVuSans-69" transform="translate(845.410156 0)"/>
     <use xlink:href="#DejaVuSans-6f" transform="translate(873.193359 0)"/>
     <use xlink:href="#DejaVuSans-6e" transform="translate(934.375 0)"/>
    </g>
   </g>
   <g id="text_3">
    <!-- Post-training corpora -->
    <g style="fill: #f58518" transform="translate(46.95 236.845247) scale(0.125 -0.125)">
     <defs>
      <path id="DejaVuSans-Bold-73" d="M 3272 3391
L 3272 2541
Q 2913 2691 2578 2766
Q 2244 2841 1947 2841
Q 1628 2841 1473 2761
Q 1319 2681 1319 2516
Q 1319 2381 1436 2309
Q 1553 2238 1856 2203
L 2053 2175
Q 2913 2066 3209 1816
Q 3506 1566 3506 1031
Q 3506 472 3093 190
Q 2681 -91 1863 -91
Q 1516 -91 1145 -36
Q 775 19 384 128
L 384 978
Q 719 816 1070 734
Q 1422 653 1784 653
Q 2113 653 2278 743
Q 2444 834 2444 1013
Q 2444 1163 2330 1236
Q 2216 1309 1875 1350
L 1678 1375
Q 931 1469 631 1722
Q 331 1975 331 2491
Q 331 3047 712 3315
Q 1094 3584 1881 3584
Q 2191 3584 2531 3537
Q 2872 3491 3272 3391
z
" transform="scale(0.015625)"/>
      <path id="DejaVuSans-Bold-2d" d="M 347 2297
L 2309 2297
L 2309 1388
L 347 1388
L 347 2297
z
" transform="scale(0.015625)"/>
     </defs>
     <use xlink:href="#DejaVuSans-Bold-50"/>
     <use xlink:href="#DejaVuSans-Bold-6f" transform="translate(73.291016 0)"/>
     <use xlink:href="#DejaVuSans-Bold-73" transform="translate(141.992188 0)"/>
     <use xlink:href="#DejaVuSans-Bold-74" transform="translate(201.513672 0)"/>
     <use xlink:href="#DejaVuSans-Bold-2d" transform="translate(249.316406 0)"/>
     <use xlink:href="#DejaVuSans-Bold-74" transform="translate(290.820312 0)"/>
     <use xlink:href="#DejaVuSans-Bold-72" transform="translate(338.623047 0)"/>
     <use xlink:href="#DejaVuSans-Bold-61" transform="translate(387.939453 0)"/>
     <use xlink:href="#DejaVuSans-Bold-69" transform="translate(455.419922 0)"/>
     <use xlink:href="#DejaVuSans-Bold-6e" transform="translate(489.697266 0)"/>
     <use xlink:href="#DejaVuSans-Bold-69" transform="translate(560.888672 0)"/>
     <use xlink:href="#DejaVuSans-Bold-6e" transform="translate(595.166016 0)"/>
     <use xlink:href="#DejaVuSans-Bold-67" transform="translate(666.357422 0)"/>
     <use xlink:href="#DejaVuSans-Bold-20" transform="translate(737.939453 0)"/>
     <use xlink:href="#DejaVuSans-Bold-63" transform="translate(772.753906 0)"/>
     <use xlink:href="#DejaVuSans-Bold-6f" transform="translate(832.03125 0)"/>
     <use xlink:href="#DejaVuSans-Bold-72" transform="translate(900.732422 0)"/>
     <use xlink:href="#DejaVuSans-Bold-70" transform="translate(950.048828 0)"/>
     <use xlink:href="#DejaVuSans-Bold-6f" transform="translate(1021.630859 0)"/>
     <use xlink:href="#DejaVuSans-Bold-72" transform="translate(1090.332031 0)"/>
     <use xlink:href="#DejaVuSans-Bold-61" transform="translate(1139.648438 0)"/>
    </g>
   </g>
   <g id="text_4">
    <!-- trainer-selected responses -->
    <g style="fill: #222222" transform="translate(46.95 268.5105) scale(0.096 -0.096)">
     <use xlink:href="#DejaVuSans-74"/>
     <use xlink:href="#DejaVuSans-72" transform="translate(39.208984 0)"/>
     <use xlink:href="#DejaVuSans-61" transform="translate(80.322266 0)"/>
     <use xlink:href="#DejaVuSans-69" transform="translate(141.601562 0)"/>
     <use xlink:href="#DejaVuSans-6e" transform="translate(169.384766 0)"/>
     <use xlink:href="#DejaVuSans-65" transform="translate(232.763672 0)"/>
     <use xlink:href="#DejaVuSans-72" transform="translate(294.287109 0)"/>
     <use xlink:href="#DejaVuSans-2d" transform="translate(329.025391 0)"/>
     <use xlink:href="#DejaVuSans-73" transform="translate(365.109375 0)"/>
     <use xlink:href="#DejaVuSans-65" transform="translate(417.208984 0)"/>
     <use xlink:href="#DejaVuSans-6c" transform="translate(478.732422 0)"/>
     <use xlink:href="#DejaVuSans-65" transform="translate(506.515625 0)"/>
     <use xlink:href="#DejaVuSans-63" transform="translate(568.039062 0)"/>
     <use xlink:href="#DejaVuSans-74" transform="translate(623.019531 0)"/>
     <use xlink:href="#DejaVuSans-65" transform="translate(662.228516 0)"/>
     <use xlink:href="#DejaVuSans-64" transform="translate(723.751953 0)"/>
     <use xlink:href="#DejaVuSans-20" transform="translate(787.228516 0)"/>
     <use xlink:href="#DejaVuSans-72" transform="translate(819.015625 0)"/>
     <use xlink:href="#DejaVuSans-65" transform="translate(857.878906 0)"/>
     <use xlink:href="#DejaVuSans-73" transform="translate(919.402344 0)"/>
     <use xlink:href="#DejaVuSans-70" transform="translate(971.501953 0)"/>
     <use xlink:href="#DejaVuSans-6f" transform="translate(1034.978516 0)"/>
     <use xlink:href="#DejaVuSans-6e" transform="translate(1096.160156 0)"/>
     <use xlink:href="#DejaVuSans-73" transform="translate(1159.539062 0)"/>
     <use xlink:href="#DejaVuSans-65" transform="translate(1211.638672 0)"/>
     <use xlink:href="#DejaVuSans-73" transform="translate(1273.162109 0)"/>
    </g>
    <!-- structured departures -->
    <g style="fill: #222222" transform="translate(46.95 279.84396) scale(0.096 -0.096)">
     <use xlink:href="#DejaVuSans-73"/>
     <use xlink:href="#DejaVuSans-74" transform="translate(52.099609 0)"/>
     <use xlink:href="#DejaVuSans-72" transform="translate(91.308594 0)"/>
     <use xlink:href="#DejaVuSans-75" transform="translate(132.421875 0)"/>
     <use xlink:href="#DejaVuSans-63" transform="translate(195.800781 0)"/>
     <use xlink:href="#DejaVuSans-74" transform="translate(250.78125 0)"/>
     <use xlink:href="#DejaVuSans-75" transform="translate(289.990234 0)"/>
     <use xlink:href="#DejaVuSans-72" transform="translate(353.369141 0)"/>
     <use xlink:href="#DejaVuSans-65" transform="translate(392.232422 0)"/>
     <use xlink:href="#DejaVuSans-64" transform="translate(453.755859 0)"/>
     <use xlink:href="#DejaVuSans-20" transform="translate(517.232422 0)"/>
     <use xlink:href="#DejaVuSans-64" transform="translate(549.019531 0)"/>
     <use xlink:href="#DejaVuSans-65" transform="translate(612.496094 0)"/>
     <use xlink:href="#DejaVuSans-70" transform="translate(674.019531 0)"/>
     <use xlink:href="#DejaVuSans-61" transform="translate(737.496094 0)"/>
     <use xlink:href="#DejaVuSans-72" transform="translate(798.775391 0)"/>
     <use xlink:href="#DejaVuSans-74" transform="translate(839.888672 0)"/>
     <use xlink:href="#DejaVuSans-75" transform="translate(879.097656 0)"/>
     <use xlink:href="#DejaVuSans-72" transform="translate(942.476562 0)"/>
     <use xlink:href="#DejaVuSans-65" transform="translate(981.339844 0)"/>
     <use xlink:href="#DejaVuSans-73" transform="translate(1042.863281 0)"/>
    </g>
    <!-- capability and safety poles -->
    <g style="fill: #222222" transform="translate(46.95 291.17742) scale(0.096 -0.096)">
     <defs>
      <path id="DejaVuSans-66" d="M 2375 4863
L 2375 4384
L 1825 4384
Q 1516 4384 1395 4259
Q 1275 4134 1275 3809
L 1275 3500
L 2222 3500
L 2222 3053
L 1275 3053
L 1275 0
L 697 0
L 697 3053
L 147 3053
L 147 3500
L 697 3500
L 697 3744
Q 697 4328 969 4595
Q 1241 4863 1831 4863
L 2375 4863
z
" transform="scale(0.015625)"/>
     </defs>
     <use xlink:href="#DejaVuSans-63"/>
     <use xlink:href="#DejaVuSans-61" transform="translate(54.980469 0)"/>
     <use xlink:href="#DejaVuSans-70" transform="translate(116.259766 0)"/>
     <use xlink:href="#DejaVuSans-61" transform="translate(179.736328 0)"/>
     <use xlink:href="#DejaVuSans-62" transform="translate(241.015625 0)"/>
     <use xlink:href="#DejaVuSans-69" transform="translate(304.492188 0)"/>
     <use xlink:href="#DejaVuSans-6c" transform="translate(332.275391 0)"/>
     <use xlink:href="#DejaVuSans-69" transform="translate(360.058594 0)"/>
     <use xlink:href="#DejaVuSans-74" transform="translate(387.841797 0)"/>
     <use xlink:href="#DejaVuSans-79" transform="translate(427.050781 0)"/>
     <use xlink:href="#DejaVuSans-20" transform="translate(486.230469 0)"/>
     <use xlink:href="#DejaVuSans-61" transform="translate(518.017578 0)"/>
     <use xlink:href="#DejaVuSans-6e" transform="translate(579.296875 0)"/>
     <use xlink:href="#DejaVuSans-64" transform="translate(642.675781 0)"/>
     <use xlink:href="#DejaVuSans-20" transform="translate(706.152344 0)"/>
     <use xlink:href="#DejaVuSans-73" transform="translate(737.939453 0)"/>
     <use xlink:href="#DejaVuSans-61" transform="translate(790.039062 0)"/>
     <use xlink:href="#DejaVuSans-66" transform="translate(851.318359 0)"/>
     <use xlink:href="#DejaVuSans-65" transform="translate(886.523438 0)"/>
     <use xlink:href="#DejaVuSans-74" transform="translate(948.046875 0)"/>
     <use xlink:href="#DejaVuSans-79" transform="translate(987.255859 0)"/>
     <use xlink:href="#DejaVuSans-20" transform="translate(1046.435547 0)"/>
     <use xlink:href="#DejaVuSans-70" transform="translate(1078.222656 0)"/>
     <use xlink:href="#DejaVuSans-6f" transform="translate(1141.699219 0)"/>
     <use xlink:href="#DejaVuSans-6c" transform="translate(1202.880859 0)"/>
     <use xlink:href="#DejaVuSans-65" transform="translate(1230.664062 0)"/>
     <use xlink:href="#DejaVuSans-73" transform="translate(1292.1875 0)"/>
    </g>
   </g>
   <g id="text_5">
    <!-- Measurement suite -->
    <g style="fill: #6f4e7c" transform="translate(346.95 123.949247) scale(0.125 -0.125)">
     <defs>
      <path id="DejaVuSans-Bold-4d" d="M 588 4666
L 2119 4666
L 3181 2169
L 4250 4666
L 5778 4666
L 5778 0
L 4641 0
L 4641 3413
L 3566 897
L 2803 897
L 1728 3413
L 1728 0
L 588 0
L 588 4666
z
" transform="scale(0.015625)"/>
      <path id="DejaVuSans-Bold-75" d="M 500 1363
L 500 3500
L 1625 3500
L 1625 3150
Q 1625 2866 1622 2436
Q 1619 2006 1619 1863
Q 1619 1441 1641 1255
Q 1663 1069 1716 984
Q 1784 875 1895 815
Q 2006 756 2150 756
Q 2500 756 2700 1025
Q 2900 1294 2900 1772
L 2900 3500
L 4019 3500
L 4019 0
L 2900 0
L 2900 506
Q 2647 200 2364 54
Q 2081 -91 1741 -91
Q 1134 -91 817 281
Q 500 653 500 1363
z
" transform="scale(0.015625)"/>
      <path id="DejaVuSans-Bold-6d" d="M 3781 2919
Q 3994 3244 4286 3414
Q 4578 3584 4928 3584
Q 5531 3584 5847 3212
Q 6163 2841 6163 2131
L 6163 0
L 5038 0
L 5038 1825
Q 5041 1866 5042 1909
Q 5044 1953 5044 2034
Q 5044 2406 4934 2573
Q 4825 2741 4581 2741
Q 4263 2741 4089 2478
Q 3916 2216 3909 1719
L 3909 0
L 2784 0
L 2784 1825
Q 2784 2406 2684 2573
Q 2584 2741 2328 2741
Q 2006 2741 1831 2477
Q 1656 2213 1656 1722
L 1656 0
L 531 0
L 531 3500
L 1656 3500
L 1656 2988
Q 1863 3284 2130 3434
Q 2397 3584 2719 3584
Q 3081 3584 3359 3409
Q 3638 3234 3781 2919
z
" transform="scale(0.015625)"/>
     </defs>
     <use xlink:href="#DejaVuSans-Bold-4d"/>
     <use xlink:href="#DejaVuSans-Bold-65" transform="translate(99.511719 0)"/>
     <use xlink:href="#DejaVuSans-Bold-61" transform="translate(167.333984 0)"/>
     <use xlink:href="#DejaVuSans-Bold-73" transform="translate(234.814453 0)"/>
     <use xlink:href="#DejaVuSans-Bold-75" transform="translate(294.335938 0)"/>
     <use xlink:href="#DejaVuSans-Bold-72" transform="translate(365.527344 0)"/>
     <use xlink:href="#DejaVuSans-Bold-65" transform="translate(414.84375 0)"/>
     <use xlink:href="#DejaVuSans-Bold-6d" transform="translate(482.666016 0)"/>
     <use xlink:href="#DejaVuSans-Bold-65" transform="translate(586.865234 0)"/>
     <use xlink:href="#DejaVuSans-Bold-6e" transform="translate(654.6875 0)"/>
     <use xlink:href="#DejaVuSans-Bold-74" transform="translate(725.878906 0)"/>
     <use xlink:href="#DejaVuSans-Bold-20" transform="translate(773.681641 0)"/>
     <use xlink:href="#DejaVuSans-Bold-73" transform="translate(808.496094 0)"/>
     <use xlink:href="#DejaVuSans-Bold-75" transform="translate(868.017578 0)"/>
     <use xlink:href="#DejaVuSans-Bold-69" transform="translate(939.208984 0)"/>
     <use xlink:href="#DejaVuSans-Bold-74" transform="translate(973.486328 0)"/>
     <use xlink:href="#DejaVuSans-Bold-65" transform="translate(1021.289062 0)"/>
    </g>
   </g>
   <g id="text_6">
    <!-- lexical mass allocation -->
    <g style="fill: #222222" transform="translate(346.95 155.6145) scale(0.096 -0.096)">
     <use xlink:href="#DejaVuSans-6c"/>
     <use xlink:href="#DejaVuSans-65" transform="translate(27.783203 0)"/>
     <use xlink:href="#DejaVuSans-78" transform="translate(87.556641 0)"/>
     <use xlink:href="#DejaVuSans-69" transform="translate(146.736328 0)"/>
     <use xlink:href="#DejaVuSans-63" transform="translate(174.519531 0)"/>
     <use xlink:href="#DejaVuSans-61" transform="translate(229.5 0)"/>
     <use xlink:href="#DejaVuSans-6c" transform="translate(290.779297 0)"/>
     <use xlink:href="#DejaVuSans-20" transform="translate(318.5625 0)"/>
     <use xlink:href="#DejaVuSans-6d" transform="translate(350.349609 0)"/>
     <use xlink:href="#DejaVuSans-61" transform="translate(447.761719 0)"/>
     <use xlink:href="#DejaVuSans-73" transform="translate(509.041016 0)"/>
     <use xlink:href="#DejaVuSans-73" transform="translate(561.140625 0)"/>
     <use xlink:href="#DejaVuSans-20" transform="translate(613.240234 0)"/>
     <use xlink:href="#DejaVuSans-61" transform="translate(645.027344 0)"/>
     <use xlink:href="#DejaVuSans-6c" transform="translate(706.306641 0)"/>
     <use xlink:href="#DejaVuSans-6c" transform="translate(734.089844 0)"/>
     <use xlink:href="#DejaVuSans-6f" transform="translate(761.873047 0)"/>
     <use xlink:href="#DejaVuSans-63" transform="translate(823.054688 0)"/>
     <use xlink:href="#DejaVuSans-61" transform="translate(878.035156 0)"/>
     <use xlink:href="#DejaVuSans-74" transform="translate(939.314453 0)"/>
     <use xlink:href="#DejaVuSans-69" transform="translate(978.523438 0)"/>
     <use xlink:href="#DejaVuSans-6f" transform="translate(1006.306641 0)"/>
     <use xlink:href="#DejaVuSans-6e" transform="translate(1067.488281 0)"/>
    </g>
    <!-- salience-rank preservation -->
    <g style="fill: #222222" transform="translate(346.95 166.94796) scale(0.096 -0.096)">
     <defs>
      <path id="DejaVuSans-6b" d="M 581 4863
L 1159 4863
L 1159 1991
L 2875 3500
L 3609 3500
L 1753 1863
L 3688 0
L 2938 0
L 1159 1709
L 1159 0
L 581 0
L 581 4863
z
" transform="scale(0.015625)"/>
     </defs>
     <use xlink:href="#DejaVuSans-73"/>
     <use xlink:href="#DejaVuSans-61" transform="translate(52.099609 0)"/>
     <use xlink:href="#DejaVuSans-6c" transform="translate(113.378906 0)"/>
     <use xlink:href="#DejaVuSans-69" transform="translate(141.162109 0)"/>
     <use xlink:href="#DejaVuSans-65" transform="translate(168.945312 0)"/>
     <use xlink:href="#DejaVuSans-6e" transform="translate(230.46875 0)"/>
     <use xlink:href="#DejaVuSans-63" transform="translate(293.847656 0)"/>
     <use xlink:href="#DejaVuSans-65" transform="translate(348.828125 0)"/>
     <use xlink:href="#DejaVuSans-2d" transform="translate(410.351562 0)"/>
     <use xlink:href="#DejaVuSans-72" transform="translate(446.435547 0)"/>
     <use xlink:href="#DejaVuSans-61" transform="translate(487.548828 0)"/>
     <use xlink:href="#DejaVuSans-6e" transform="translate(548.828125 0)"/>
     <use xlink:href="#DejaVuSans-6b" transform="translate(612.207031 0)"/>
     <use xlink:href="#DejaVuSans-20" transform="translate(670.117188 0)"/>
     <use xlink:href="#DejaVuSans-70" transform="translate(701.904297 0)"/>
     <use xlink:href="#DejaVuSans-72" transform="translate(765.380859 0)"/>
     <use xlink:href="#DejaVuSans-65" transform="translate(804.244141 0)"/>
     <use xlink:href="#DejaVuSans-73" transform="translate(865.767578 0)"/>
     <use xlink:href="#DejaVuSans-65" transform="translate(917.867188 0)"/>
     <use xlink:href="#DejaVuSans-72" transform="translate(979.390625 0)"/>
     <use xlink:href="#DejaVuSans-76" transform="translate(1020.503906 0)"/>
     <use xlink:href="#DejaVuSans-61" transform="translate(1079.683594 0)"/>
     <use xlink:href="#DejaVuSans-74" transform="translate(1140.962891 0)"/>
     <use xlink:href="#DejaVuSans-69" transform="translate(1180.171875 0)"/>
     <use xlink:href="#DejaVuSans-6f" transform="translate(1207.955078 0)"/>
     <use xlink:href="#DejaVuSans-6e" transform="translate(1269.136719 0)"/>
    </g>
    <!-- embedding-neighborhood shift -->
    <g style="fill: #222222" transform="translate(346.95 178.28142) scale(0.096 -0.096)">
     <use xlink:href="#DejaVuSans-65"/>
     <use xlink:href="#DejaVuSans-6d" transform="translate(61.523438 0)"/>
     <use xlink:href="#DejaVuSans-62" transform="translate(158.935547 0)"/>
     <use xlink:href="#DejaVuSans-65" transform="translate(222.412109 0)"/>
     <use xlink:href="#DejaVuSans-64" transform="translate(283.935547 0)"/>
     <use xlink:href="#DejaVuSans-64" transform="translate(347.412109 0)"/>
     <use xlink:href="#DejaVuSans-69" transform="translate(410.888672 0)"/>
     <use xlink:href="#DejaVuSans-6e" transform="translate(438.671875 0)"/>
     <use xlink:href="#DejaVuSans-67" transform="translate(502.050781 0)"/>
     <use xlink:href="#DejaVuSans-2d" transform="translate(565.527344 0)"/>
     <use xlink:href="#DejaVuSans-6e" transform="translate(601.611328 0)"/>
     <use xlink:href="#DejaVuSans-65" transform="translate(664.990234 0)"/>
     <use xlink:href="#DejaVuSans-69" transform="translate(726.513672 0)"/>
     <use xlink:href="#DejaVuSans-67" transform="translate(754.296875 0)"/>
     <use xlink:href="#DejaVuSans-68" transform="translate(817.773438 0)"/>
     <use xlink:href="#DejaVuSans-62" transform="translate(881.152344 0)"/>
     <use xlink:href="#DejaVuSans-6f" transform="translate(944.628906 0)"/>
     <use xlink:href="#DejaVuSans-72" transform="translate(1005.810547 0)"/>
     <use xlink:href="#DejaVuSans-68" transform="translate(1045.173828 0)"/>
     <use xlink:href="#DejaVuSans-6f" transform="translate(1108.552734 0)"/>
     <use xlink:href="#DejaVuSans-6f" transform="translate(1169.734375 0)"/>
     <use xlink:href="#DejaVuSans-64" transform="translate(1230.916016 0)"/>
     <use xlink:href="#DejaVuSans-20" transform="translate(1294.392578 0)"/>
     <use xlink:href="#DejaVuSans-73" transform="translate(1326.179688 0)"/>
     <use xlink:href="#DejaVuSans-68" transform="translate(1378.279297 0)"/>
     <use xlink:href="#DejaVuSans-69" transform="translate(1441.658203 0)"/>
     <use xlink:href="#DejaVuSans-66" transform="translate(1469.441406 0)"/>
     <use xlink:href="#DejaVuSans-74" transform="translate(1502.896484 0)"/>
    </g>
    <!-- spectral concentration -->
    <g style="fill: #222222" transform="translate(346.95 189.61488) scale(0.096 -0.096)">
     <use xlink:href="#DejaVuSans-73"/>
     <use xlink:href="#DejaVuSans-70" transform="translate(52.099609 0)"/>
     <use xlink:href="#DejaVuSans-65" transform="translate(115.576172 0)"/>
     <use xlink:href="#DejaVuSans-63" transform="translate(177.099609 0)"/>
     <use xlink:href="#DejaVuSans-74" transform="translate(232.080078 0)"/>
     <use xlink:href="#DejaVuSans-72" transform="translate(271.289062 0)"/>
     <use xlink:href="#DejaVuSans-61" transform="translate(312.402344 0)"/>
     <use xlink:href="#DejaVuSans-6c" transform="translate(373.681641 0)"/>
     <use xlink:href="#DejaVuSans-20" transform="translate(401.464844 0)"/>
     <use xlink:href="#DejaVuSans-63" transform="translate(433.251953 0)"/>
     <use xlink:href="#DejaVuSans-6f" transform="translate(488.232422 0)"/>
     <use xlink:href="#DejaVuSans-6e" transform="translate(549.414062 0)"/>
     <use xlink:href="#DejaVuSans-63" transform="translate(612.792969 0)"/>
     <use xlink:href="#DejaVuSans-65" transform="translate(667.773438 0)"/>
     <use xlink:href="#DejaVuSans-6e" transform="translate(729.296875 0)"/>
     <use xlink:href="#DejaVuSans-74" transform="translate(792.675781 0)"/>
     <use xlink:href="#DejaVuSans-72" transform="translate(831.884766 0)"/>
     <use xlink:href="#DejaVuSans-61" transform="translate(872.998047 0)"/>
     <use xlink:href="#DejaVuSans-74" transform="translate(934.277344 0)"/>
     <use xlink:href="#DejaVuSans-69" transform="translate(973.486328 0)"/>
     <use xlink:href="#DejaVuSans-6f" transform="translate(1001.269531 0)"/>
     <use xlink:href="#DejaVuSans-6e" transform="translate(1062.451172 0)"/>
    </g>
    <!-- redundancy and mixture paths -->
    <g style="fill: #222222" transform="translate(346.95 200.94834) scale(0.096 -0.096)">
     <use xlink:href="#DejaVuSans-72"/>
     <use xlink:href="#DejaVuSans-65" transform="translate(38.863281 0)"/>
     <use xlink:href="#DejaVuSans-64" transform="translate(100.386719 0)"/>
     <use xlink:href="#DejaVuSans-75" transform="translate(163.863281 0)"/>
     <use xlink:href="#DejaVuSans-6e" transform="translate(227.242188 0)"/>
     <use xlink:href="#DejaVuSans-64" transform="translate(290.621094 0)"/>
     <use xlink:href="#DejaVuSans-61" transform="translate(354.097656 0)"/>
     <use xlink:href="#DejaVuSans-6e" transform="translate(415.376953 0)"/>
     <use xlink:href="#DejaVuSans-63" transform="translate(478.755859 0)"/>
     <use xlink:href="#DejaVuSans-79" transform="translate(533.736328 0)"/>
     <use xlink:href="#DejaVuSans-20" transform="translate(592.916016 0)"/>
     <use xlink:href="#DejaVuSans-61" transform="translate(624.703125 0)"/>
     <use xlink:href="#DejaVuSans-6e" transform="translate(685.982422 0)"/>
     <use xlink:href="#DejaVuSans-64" transform="translate(749.361328 0)"/>
     <use xlink:href="#DejaVuSans-20" transform="translate(812.837891 0)"/>
     <use xlink:href="#DejaVuSans-6d" transform="translate(844.625 0)"/>
     <use xlink:href="#DejaVuSans-69" transform="translate(942.037109 0)"/>
     <use xlink:href="#DejaVuSans-78" transform="translate(969.820312 0)"/>
     <use xlink:href="#DejaVuSans-74" transform="translate(1029 0)"/>
     <use xlink:href="#DejaVuSans-75" transform="translate(1068.208984 0)"/>
     <use xlink:href="#DejaVuSans-72" transform="translate(1131.587891 0)"/>
     <use xlink:href="#DejaVuSans-65" transform="translate(1170.451172 0)"/>
     <use xlink:href="#DejaVuSans-20" transform="translate(1231.974609 0)"/>
     <use xlink:href="#DejaVuSans-70" transform="translate(1263.761719 0)"/>
     <use xlink:href="#DejaVuSans-61" transform="translate(1327.238281 0)"/>
     <use xlink:href="#DejaVuSans-74" transform="translate(1388.517578 0)"/>
     <use xlink:href="#DejaVuSans-68" transform="translate(1427.726562 0)"/>
     <use xlink:href="#DejaVuSans-73" transform="translate(1491.105469 0)"/>
    </g>
   </g>
   <g id="text_7">
    <!-- Diagnostic output -->
    <g style="fill: #2f6f5e" transform="translate(661.95 123.949247) scale(0.125 -0.125)">
     <defs>
      <path id="DejaVuSans-Bold-44" d="M 1791 3756
L 1791 909
L 2222 909
Q 2959 909 3348 1275
Q 3738 1641 3738 2338
Q 3738 3031 3350 3393
Q 2963 3756 2222 3756
L 1791 3756
z
M 588 4666
L 1856 4666
Q 2919 4666 3439 4514
Q 3959 4363 4331 4000
Q 4659 3684 4818 3271
Q 4978 2859 4978 2338
Q 4978 1809 4818 1395
Q 4659 981 4331 666
Q 3956 303 3431 151
Q 2906 0 1856 0
L 588 0
L 588 4666
z
" transform="scale(0.015625)"/>
     </defs>
     <use xlink:href="#DejaVuSans-Bold-44"/>
     <use xlink:href="#DejaVuSans-Bold-69" transform="translate(83.007812 0)"/>
     <use xlink:href="#DejaVuSans-Bold-61" transform="translate(117.285156 0)"/>
     <use xlink:href="#DejaVuSans-Bold-67" transform="translate(184.765625 0)"/>
     <use xlink:href="#DejaVuSans-Bold-6e" transform="translate(256.347656 0)"/>
     <use xlink:href="#DejaVuSans-Bold-6f" transform="translate(327.539062 0)"/>
     <use xlink:href="#DejaVuSans-Bold-73" transform="translate(396.240234 0)"/>
     <use xlink:href="#DejaVuSans-Bold-74" transform="translate(455.761719 0)"/>
     <use xlink:href="#DejaVuSans-Bold-69" transform="translate(503.564453 0)"/>
     <use xlink:href="#DejaVuSans-Bold-63" transform="translate(537.841797 0)"/>
     <use xlink:href="#DejaVuSans-Bold-20" transform="translate(597.119141 0)"/>
     <use xlink:href="#DejaVuSans-Bold-6f" transform="translate(631.933594 0)"/>
     <use xlink:href="#DejaVuSans-Bold-75" transform="translate(700.634766 0)"/>
     <use xlink:href="#DejaVuSans-Bold-74" transform="translate(771.826172 0)"/>
     <use xlink:href="#DejaVuSans-Bold-70" transform="translate(819.628906 0)"/>
     <use xlink:href="#DejaVuSans-Bold-75" transform="translate(891.210938 0)"/>
     <use xlink:href="#DejaVuSans-Bold-74" transform="translate(962.402344 0)"/>
    </g>
   </g>
   <g id="text_8">
    <!-- stage-linked separation -->
    <g style="fill: #222222" transform="translate(661.95 155.6145) scale(0.096 -0.096)">
     <use xlink:href="#DejaVuSans-73"/>
     <use xlink:href="#DejaVuSans-74" transform="translate(52.099609 0)"/>
     <use xlink:href="#DejaVuSans-61" transform="translate(91.308594 0)"/>
     <use xlink:href="#DejaVuSans-67" transform="translate(152.587891 0)"/>
     <use xlink:href="#DejaVuSans-65" transform="translate(216.064453 0)"/>
     <use xlink:href="#DejaVuSans-2d" transform="translate(277.587891 0)"/>
     <use xlink:href="#DejaVuSans-6c" transform="translate(313.671875 0)"/>
     <use xlink:href="#DejaVuSans-69" transform="translate(341.455078 0)"/>
     <use xlink:href="#DejaVuSans-6e" transform="translate(369.238281 0)"/>
     <use xlink:href="#DejaVuSans-6b" transform="translate(432.617188 0)"/>
     <use xlink:href="#DejaVuSans-65" transform="translate(486.902344 0)"/>
     <use xlink:href="#DejaVuSans-64" transform="translate(548.425781 0)"/>
     <use xlink:href="#DejaVuSans-20" transform="translate(611.902344 0)"/>
     <use xlink:href="#DejaVuSans-73" transform="translate(643.689453 0)"/>
     <use xlink:href="#DejaVuSans-65" transform="translate(695.789062 0)"/>
     <use xlink:href="#DejaVuSans-70" transform="translate(757.3125 0)"/>
     <use xlink:href="#DejaVuSans-61" transform="translate(820.789062 0)"/>
     <use xlink:href="#DejaVuSans-72" transform="translate(882.068359 0)"/>
     <use xlink:href="#DejaVuSans-61" transform="translate(923.181641 0)"/>
     <use xlink:href="#DejaVuSans-74" transform="translate(984.460938 0)"/>
     <use xlink:href="#DejaVuSans-69" transform="translate(1023.669922 0)"/>
     <use xlink:href="#DejaVuSans-6f" transform="translate(1051.453125 0)"/>
     <use xlink:href="#DejaVuSans-6e" transform="translate(1112.634766 0)"/>
    </g>
    <!-- internal post-training structure -->
    <g style="fill: #222222" transform="translate(661.95 166.94796) scale(0.096 -0.096)">
     <use xlink:href="#DejaVuSans-69"/>
     <use xlink:href="#DejaVuSans-6e" transform="translate(27.783203 0)"/>
     <use xlink:href="#DejaVuSans-74" transform="translate(91.162109 0)"/>
     <use xlink:href="#DejaVuSans-65" transform="translate(130.371094 0)"/>
     <use xlink:href="#DejaVuSans-72" transform="translate(191.894531 0)"/>
     <use xlink:href="#DejaVuSans-6e" transform="translate(231.257812 0)"/>
     <use xlink:href="#DejaVuSans-61" transform="translate(294.636719 0)"/>
     <use xlink:href="#DejaVuSans-6c" transform="translate(355.916016 0)"/>
     <use xlink:href="#DejaVuSans-20" transform="translate(383.699219 0)"/>
     <use xlink:href="#DejaVuSans-70" transform="translate(415.486328 0)"/>
     <use xlink:href="#DejaVuSans-6f" transform="translate(478.962891 0)"/>
     <use xlink:href="#DejaVuSans-73" transform="translate(540.144531 0)"/>
     <use xlink:href="#DejaVuSans-74" transform="translate(592.244141 0)"/>
     <use xlink:href="#DejaVuSans-2d" transform="translate(631.453125 0)"/>
     <use xlink:href="#DejaVuSans-74" transform="translate(667.537109 0)"/>
     <use xlink:href="#DejaVuSans-72" transform="translate(706.746094 0)"/>
     <use xlink:href="#DejaVuSans-61" transform="translate(747.859375 0)"/>
     <use xlink:href="#DejaVuSans-69" transform="translate(809.138672 0)"/>
     <use xlink:href="#DejaVuSans-6e" transform="translate(836.921875 0)"/>
     <use xlink:href="#DejaVuSans-69" transform="translate(900.300781 0)"/>
     <use xlink:href="#DejaVuSans-6e" transform="translate(928.083984 0)"/>
     <use xlink:href="#DejaVuSans-67" transform="translate(991.462891 0)"/>
     <use xlink:href="#DejaVuSans-20" transform="translate(1054.939453 0)"/>
     <use xlink:href="#DejaVuSans-73" transform="translate(1086.726562 0)"/>
     <use xlink:href="#DejaVuSans-74" transform="translate(1138.826172 0)"/>
     <use xlink:href="#DejaVuSans-72" transform="translate(1178.035156 0)"/>
     <use xlink:href="#DejaVuSans-75" transform="translate(1219.148438 0)"/>
     <use xlink:href="#DejaVuSans-63" transform="translate(1282.527344 0)"/>
     <use xlink:href="#DejaVuSans-74" transform="translate(1337.507812 0)"/>
     <use xlink:href="#DejaVuSans-75" transform="translate(1376.716797 0)"/>
     <use xlink:href="#DejaVuSans-72" transform="translate(1440.095703 0)"/>
     <use xlink:href="#DejaVuSans-65" transform="translate(1478.958984 0)"/>
    </g>
    <!-- positioning for new corpora -->
    <g style="fill: #222222" transform="translate(661.95 178.28142) scale(0.096 -0.096)">
     <use xlink:href="#DejaVuSans-70"/>
     <use xlink:href="#DejaVuSans-6f" transform="translate(63.476562 0)"/>
     <use xlink:href="#DejaVuSans-73" transform="translate(124.658203 0)"/>
     <use xlink:href="#DejaVuSans-69" transform="translate(176.757812 0)"/>
     <use xlink:href="#DejaVuSans-74" transform="translate(204.541016 0)"/>
     <use xlink:href="#DejaVuSans-69" transform="translate(243.75 0)"/>
     <use xlink:href="#DejaVuSans-6f" transform="translate(271.533203 0)"/>
     <use xlink:href="#DejaVuSans-6e" transform="translate(332.714844 0)"/>
     <use xlink:href="#DejaVuSans-69" transform="translate(396.09375 0)"/>
     <use xlink:href="#DejaVuSans-6e" transform="translate(423.876953 0)"/>
     <use xlink:href="#DejaVuSans-67" transform="translate(487.255859 0)"/>
     <use xlink:href="#DejaVuSans-20" transform="translate(550.732422 0)"/>
     <use xlink:href="#DejaVuSans-66" transform="translate(582.519531 0)"/>
     <use xlink:href="#DejaVuSans-6f" transform="translate(617.724609 0)"/>
     <use xlink:href="#DejaVuSans-72" transform="translate(678.90625 0)"/>
     <use xlink:href="#DejaVuSans-20" transform="translate(720.019531 0)"/>
     <use xlink:href="#DejaVuSans-6e" transform="translate(751.806641 0)"/>
     <use xlink:href="#DejaVuSans-65" transform="translate(815.185547 0)"/>
     <use xlink:href="#DejaVuSans-77" transform="translate(876.708984 0)"/>
     <use xlink:href="#DejaVuSans-20" transform="translate(958.496094 0)"/>
     <use xlink:href="#DejaVuSans-63" transform="translate(990.283203 0)"/>
     <use xlink:href="#DejaVuSans-6f" transform="translate(1045.263672 0)"/>
     <use xlink:href="#DejaVuSans-72" transform="translate(1106.445312 0)"/>
     <use xlink:href="#DejaVuSans-70" transform="translate(1147.558594 0)"/>
     <use xlink:href="#DejaVuSans-6f" transform="translate(1211.035156 0)"/>
     <use xlink:href="#DejaVuSans-72" transform="translate(1272.216797 0)"/>
     <use xlink:href="#DejaVuSans-61" transform="translate(1313.330078 0)"/>
    </g>
    <!-- public scorecard submissions -->
    <g style="fill: #222222" transform="translate(661.95 189.61488) scale(0.096 -0.096)">
     <use xlink:href="#DejaVuSans-70"/>
     <use xlink:href="#DejaVuSans-75" transform="translate(63.476562 0)"/>
     <use xlink:href="#DejaVuSans-62" transform="translate(126.855469 0)"/>
     <use xlink:href="#DejaVuSans-6c" transform="translate(190.332031 0)"/>
     <use xlink:href="#DejaVuSans-69" transform="translate(218.115234 0)"/>
     <use xlink:href="#DejaVuSans-63" transform="translate(245.898438 0)"/>
     <use xlink:href="#DejaVuSans-20" transform="translate(300.878906 0)"/>
     <use xlink:href="#DejaVuSans-73" transform="translate(332.666016 0)"/>
     <use xlink:href="#DejaVuSans-63" transform="translate(384.765625 0)"/>
     <use xlink:href="#DejaVuSans-6f" transform="translate(439.746094 0)"/>
     <use xlink:href="#DejaVuSans-72" transform="translate(500.927734 0)"/>
     <use xlink:href="#DejaVuSans-65" transform="translate(539.791016 0)"/>
     <use xlink:href="#DejaVuSans-63" transform="translate(601.314453 0)"/>
     <use xlink:href="#DejaVuSans-61" transform="translate(656.294922 0)"/>
     <use xlink:href="#DejaVuSans-72" transform="translate(717.574219 0)"/>
     <use xlink:href="#DejaVuSans-64" transform="translate(756.9375 0)"/>
     <use xlink:href="#DejaVuSans-20" transform="translate(820.414062 0)"/>
     <use xlink:href="#DejaVuSans-73" transform="translate(852.201172 0)"/>
     <use xlink:href="#DejaVuSans-75" transform="translate(904.300781 0)"/>
     <use xlink:href="#DejaVuSans-62" transform="translate(967.679688 0)"/>
     <use xlink:href="#DejaVuSans-6d" transform="translate(1031.15625 0)"/>
     <use xlink:href="#DejaVuSans-69" transform="translate(1128.568359 0)"/>
     <use xlink:href="#DejaVuSans-73" transform="translate(1156.351562 0)"/>
     <use xlink:href="#DejaVuSans-73" transform="translate(1208.451172 0)"/>
     <use xlink:href="#DejaVuSans-69" transform="translate(1260.550781 0)"/>
     <use xlink:href="#DejaVuSans-6f" transform="translate(1288.333984 0)"/>
     <use xlink:href="#DejaVuSans-6e" transform="translate(1349.515625 0)"/>
     <use xlink:href="#DejaVuSans-73" transform="translate(1412.894531 0)"/>
    </g>
   </g>
   <g id="text_9">
    <!-- Lens effects as an upstream corpus diagnostic -->
    <g style="fill: #111111" transform="translate(33.45 26.9568) scale(0.165 -0.165)">
     <defs>
      <path id="DejaVuSans-Bold-4c" d="M 588 4666
L 1791 4666
L 1791 909
L 3903 909
L 3903 0
L 588 0
L 588 4666
z
" transform="scale(0.015625)"/>
      <path id="DejaVuSans-Bold-66" d="M 2841 4863
L 2841 4128
L 2222 4128
Q 1984 4128 1890 4042
Q 1797 3956 1797 3744
L 1797 3500
L 2753 3500
L 2753 2700
L 1797 2700
L 1797 0
L 678 0
L 678 2700
L 122 2700
L 122 3500
L 678 3500
L 678 3744
Q 678 4316 997 4589
Q 1316 4863 1984 4863
L 2841 4863
z
" transform="scale(0.015625)"/>
      <path id="DejaVuSans-Bold-64" d="M 2919 2988
L 2919 4863
L 4044 4863
L 4044 0
L 2919 0
L 2919 506
Q 2688 197 2409 53
Q 2131 -91 1766 -91
Q 1119 -91 703 423
Q 288 938 288 1747
Q 288 2556 703 3070
Q 1119 3584 1766 3584
Q 2128 3584 2408 3439
Q 2688 3294 2919 2988
z
M 2181 722
Q 2541 722 2730 984
Q 2919 1247 2919 1747
Q 2919 2247 2730 2509
Q 2541 2772 2181 2772
Q 1825 2772 1636 2509
Q 1447 2247 1447 1747
Q 1447 1247 1636 984
Q 1825 722 2181 722
z
" transform="scale(0.015625)"/>
     </defs>
     <use xlink:href="#DejaVuSans-Bold-4c"/>
     <use xlink:href="#DejaVuSans-Bold-65" transform="translate(63.720703 0)"/>
     <use xlink:href="#DejaVuSans-Bold-6e" transform="translate(131.542969 0)"/>
     <use xlink:href="#DejaVuSans-Bold-73" transform="translate(202.734375 0)"/>
     <use xlink:href="#DejaVuSans-Bold-20" transform="translate(262.255859 0)"/>
     <use xlink:href="#DejaVuSans-Bold-65" transform="translate(297.070312 0)"/>
     <use xlink:href="#DejaVuSans-Bold-66" transform="translate(364.892578 0)"/>
     <use xlink:href="#DejaVuSans-Bold-66" transform="translate(408.398438 0)"/>
     <use xlink:href="#DejaVuSans-Bold-65" transform="translate(451.904297 0)"/>
     <use xlink:href="#DejaVuSans-Bold-63" transform="translate(519.726562 0)"/>
     <use xlink:href="#DejaVuSans-Bold-74" transform="translate(579.003906 0)"/>
     <use xlink:href="#DejaVuSans-Bold-73" transform="translate(626.806641 0)"/>
     <use xlink:href="#DejaVuSans-Bold-20" transform="translate(686.328125 0)"/>
     <use xlink:href="#DejaVuSans-Bold-61" transform="translate(721.142578 0)"/>
     <use xlink:href="#DejaVuSans-Bold-73" transform="translate(788.623047 0)"/>
     <use xlink:href="#DejaVuSans-Bold-20" transform="translate(848.144531 0)"/>
     <use xlink:href="#DejaVuSans-Bold-61" transform="translate(882.958984 0)"/>
     <use xlink:href="#DejaVuSans-Bold-6e" transform="translate(950.439453 0)"/>
     <use xlink:href="#DejaVuSans-Bold-20" transform="translate(1021.630859 0)"/>
     <use xlink:href="#DejaVuSans-Bold-75" transform="translate(1056.445312 0)"/>
     <use xlink:href="#DejaVuSans-Bold-70" transform="translate(1127.636719 0)"/>
     <use xlink:href="#DejaVuSans-Bold-73" transform="translate(1199.21875 0)"/>
     <use xlink:href="#DejaVuSans-Bold-74" transform="translate(1258.740234 0)"/>
     <use xlink:href="#DejaVuSans-Bold-72" transform="translate(1306.542969 0)"/>
     <use xlink:href="#DejaVuSans-Bold-65" transform="translate(1355.859375 0)"/>
     <use xlink:href="#DejaVuSans-Bold-61" transform="translate(1423.681641 0)"/>
     <use xlink:href="#DejaVuSans-Bold-6d" transform="translate(1491.162109 0)"/>
     <use xlink:href="#DejaVuSans-Bold-20" transform="translate(1595.361328 0)"/>
     <use xlink:href="#DejaVuSans-Bold-63" transform="translate(1630.175781 0)"/>
     <use xlink:href="#DejaVuSans-Bold-6f" transform="translate(1689.453125 0)"/>
     <use xlink:href="#DejaVuSans-Bold-72" transform="translate(1758.154297 0)"/>
     <use xlink:href="#DejaVuSans-Bold-70" transform="translate(1807.470703 0)"/>
     <use xlink:href="#DejaVuSans-Bold-75" transform="translate(1879.052734 0)"/>
     <use xlink:href="#DejaVuSans-Bold-73" transform="translate(1950.244141 0)"/>
     <use xlink:href="#DejaVuSans-Bold-20" transform="translate(2009.765625 0)"/>
     <use xlink:href="#DejaVuSans-Bold-64" transform="translate(2044.580078 0)"/>
     <use xlink:href="#DejaVuSans-Bold-69" transform="translate(2116.162109 0)"/>
     <use xlink:href="#DejaVuSans-Bold-61" transform="translate(2150.439453 0)"/>
     <use xlink:href="#DejaVuSans-Bold-67" transform="translate(2217.919922 0)"/>
     <use xlink:href="#DejaVuSans-Bold-6e" transform="translate(2289.501953 0)"/>
     <use xlink:href="#DejaVuSans-Bold-6f" transform="translate(2360.693359 0)"/>
     <use xlink:href="#DejaVuSans-Bold-73" transform="translate(2429.394531 0)"/>
     <use xlink:href="#DejaVuSans-Bold-74" transform="translate(2488.916016 0)"/>
     <use xlink:href="#DejaVuSans-Bold-69" transform="translate(2536.71875 0)"/>
     <use xlink:href="#DejaVuSans-Bold-63" transform="translate(2570.996094 0)"/>
    </g>
   </g>
   <g id="text_10">
    <!-- Motivated corpus preparation leaves measurable, graded structure before optimization begins. -->
    <g style="fill: #333333" transform="translate(33.45 50.9472) scale(0.108 -0.108)">
     <defs>
      <path id="DejaVuSans-4d" d="M 628 4666
L 1569 4666
L 2759 1491
L 3956 4666
L 4897 4666
L 4897 0
L 4281 0
L 4281 4097
L 3078 897
L 2444 897
L 1241 4097
L 1241 0
L 628 0
L 628 4666
z
" transform="scale(0.015625)"/>
      <path id="DejaVuSans-2c" d="M 750 794
L 1409 794
L 1409 256
L 897 -744
L 494 -744
L 750 256
L 750 794
z
" transform="scale(0.015625)"/>
      <path id="DejaVuSans-7a" d="M 353 3500
L 3084 3500
L 3084 2975
L 922 459
L 3084 459
L 3084 0
L 275 0
L 275 525
L 2438 3041
L 353 3041
L 353 3500
z
" transform="scale(0.015625)"/>
      <path id="DejaVuSans-2e" d="M 684 794
L 1344 794
L 1344 0
L 684 0
L 684 794
z
" transform="scale(0.015625)"/>
     </defs>
     <use xlink:href="#DejaVuSans-4d"/>
     <use xlink:href="#DejaVuSans-6f" transform="translate(86.279297 0)"/>
     <use xlink:href="#DejaVuSans-74" transform="translate(147.460938 0)"/>
     <use xlink:href="#DejaVuSans-69" transform="translate(186.669922 0)"/>
     <use xlink:href="#DejaVuSans-76" transform="translate(214.453125 0)"/>
     <use xlink:href="#DejaVuSans-61" transform="translate(273.632812 0)"/>
     <use xlink:href="#DejaVuSans-74" transform="translate(334.912109 0)"/>
     <use xlink:href="#DejaVuSans-65" transform="translate(374.121094 0)"/>
     <use xlink:href="#DejaVuSans-64" transform="translate(435.644531 0)"/>
     <use xlink:href="#DejaVuSans-20" transform="translate(499.121094 0)"/>
     <use xlink:href="#DejaVuSans-63" transform="translate(530.908203 0)"/>
     <use xlink:href="#DejaVuSans-6f" transform="translate(585.888672 0)"/>
     <use xlink:href="#DejaVuSans-72" transform="translate(647.070312 0)"/>
     <use xlink:href="#DejaVuSans-70" transform="translate(688.183594 0)"/>
     <use xlink:href="#DejaVuSans-75" transform="translate(751.660156 0)"/>
     <use xlink:href="#DejaVuSans-73" transform="translate(815.039062 0)"/>
     <use xlink:href="#DejaVuSans-20" transform="translate(867.138672 0)"/>
     <use xlink:href="#DejaVuSans-70" transform="translate(898.925781 0)"/>
     <use xlink:href="#DejaVuSans-72" transform="translate(962.402344 0)"/>
     <use xlink:href="#DejaVuSans-65" transform="translate(1001.265625 0)"/>
     <use xlink:href="#DejaVuSans-70" transform="translate(1062.789062 0)"/>
     <use xlink:href="#DejaVuSans-61" transform="translate(1126.265625 0)"/>
     <use xlink:href="#DejaVuSans-72" transform="translate(1187.544922 0)"/>
     <use xlink:href="#DejaVuSans-61" transform="translate(1228.658203 0)"/>
     <use xlink:href="#DejaVuSans-74" transform="translate(1289.9375 0)"/>
     <use xlink:href="#DejaVuSans-69" transform="translate(1329.146484 0)"/>
     <use xlink:href="#DejaVuSans-6f" transform="translate(1356.929688 0)"/>
     <use xlink:href="#DejaVuSans-6e" transform="translate(1418.111328 0)"/>
     <use xlink:href="#DejaVuSans-20" transform="translate(1481.490234 0)"/>
     <use xlink:href="#DejaVuSans-6c" transform="translate(1513.277344 0)"/>
     <use xlink:href="#DejaVuSans-65" transform="translate(1541.060547 0)"/>
     <use xlink:href="#DejaVuSans-61" transform="translate(1602.583984 0)"/>
     <use xlink:href="#DejaVuSans-76" transform="translate(1663.863281 0)"/>
     <use xlink:href="#DejaVuSans-65" transform="translate(1723.042969 0)"/>
     <use xlink:href="#DejaVuSans-73" transform="translate(1784.566406 0)"/>
     <use xlink:href="#DejaVuSans-20" transform="translate(1836.666016 0)"/>
     <use xlink:href="#DejaVuSans-6d" transform="translate(1868.453125 0)"/>
     <use xlink:href="#DejaVuSans-65" transform="translate(1965.865234 0)"/>
     <use xlink:href="#DejaVuSans-61" transform="translate(2027.388672 0)"/>
     <use xlink:href="#DejaVuSans-73" transform="translate(2088.667969 0)"/>
     <use xlink:href="#DejaVuSans-75" transform="translate(2140.767578 0)"/>
     <use xlink:href="#DejaVuSans-72" transform="translate(2204.146484 0)"/>
     <use xlink:href="#DejaVuSans-61" transform="translate(2245.259766 0)"/>
     <use xlink:href="#DejaVuSans-62" transform="translate(2306.539062 0)"/>
     <use xlink:href="#DejaVuSans-6c" transform="translate(2370.015625 0)"/>
     <use xlink:href="#DejaVuSans-65" transform="translate(2397.798828 0)"/>
     <use xlink:href="#DejaVuSans-2c" transform="translate(2459.322266 0)"/>
     <use xlink:href="#DejaVuSans-20" transform="translate(2491.109375 0)"/>
     <use xlink:href="#DejaVuSans-67" transform="translate(2522.896484 0)"/>
     <use xlink:href="#DejaVuSans-72" transform="translate(2586.373047 0)"/>
     <use xlink:href="#DejaVuSans-61" transform="translate(2627.486328 0)"/>
     <use xlink:href="#DejaVuSans-64" transform="translate(2688.765625 0)"/>
     <use xlink:href="#DejaVuSans-65" transform="translate(2752.242188 0)"/>
     <use xlink:href="#DejaVuSans-64" transform="translate(2813.765625 0)"/>
     <use xlink:href="#DejaVuSans-20" transform="translate(2877.242188 0)"/>
     <use xlink:href="#DejaVuSans-73" transform="translate(2909.029297 0)"/>
     <use xlink:href="#DejaVuSans-74" transform="translate(2961.128906 0)"/>
     <use xlink:href="#DejaVuSans-72" transform="translate(3000.337891 0)"/>
     <use xlink:href="#DejaVuSans-75" transform="translate(3041.451172 0)"/>
     <use xlink:href="#DejaVuSans-63" transform="translate(3104.830078 0)"/>
     <use xlink:href="#DejaVuSans-74" transform="translate(3159.810547 0)"/>
     <use xlink:href="#DejaVuSans-75" transform="translate(3199.019531 0)"/>
     <use xlink:href="#DejaVuSans-72" transform="translate(3262.398438 0)"/>
     <use xlink:href="#DejaVuSans-65" transform="translate(3301.261719 0)"/>
     <use xlink:href="#DejaVuSans-20" transform="translate(3362.785156 0)"/>
     <use xlink:href="#DejaVuSans-62" transform="translate(3394.572266 0)"/>
     <use xlink:href="#DejaVuSans-65" transform="translate(3458.048828 0)"/>
     <use xlink:href="#DejaVuSans-66" transform="translate(3519.572266 0)"/>
     <use xlink:href="#DejaVuSans-6f" transform="translate(3554.777344 0)"/>
     <use xlink:href="#DejaVuSans-72" transform="translate(3615.958984 0)"/>
     <use xlink:href="#DejaVuSans-65" transform="translate(3654.822266 0)"/>
     <use xlink:href="#DejaVuSans-20" transform="translate(3716.345703 0)"/>
     <use xlink:href="#DejaVuSans-6f" transform="translate(3748.132812 0)"/>
     <use xlink:href="#DejaVuSans-70" transform="translate(3809.314453 0)"/>
     <use xlink:href="#DejaVuSans-74" transform="translate(3872.791016 0)"/>
     <use xlink:href="#DejaVuSans-69" transform="translate(3912 0)"/>
     <use xlink:href="#DejaVuSans-6d" transform="translate(3939.783203 0)"/>
     <use xlink:href="#DejaVuSans-69" transform="translate(4037.195312 0)"/>
     <use xlink:href="#DejaVuSans-7a" transform="translate(4064.978516 0)"/>
     <use xlink:href="#DejaVuSans-61" transform="translate(4117.46875 0)"/>
     <use xlink:href="#DejaVuSans-74" transform="translate(4178.748047 0)"/>
     <use xlink:href="#DejaVuSans-69" transform="translate(4217.957031 0)"/>
     <use xlink:href="#DejaVuSans-6f" transform="translate(4245.740234 0)"/>
     <use xlink:href="#DejaVuSans-6e" transform="translate(4306.921875 0)"/>
     <use xlink:href="#DejaVuSans-20" transform="translate(4370.300781 0)"/>
     <use xlink:href="#DejaVuSans-62" transform="translate(4402.087891 0)"/>
     <use xlink:href="#DejaVuSans-65" transform="translate(4465.564453 0)"/>
     <use xlink:href="#DejaVuSans-67" transform="translate(4527.087891 0)"/>
     <use xlink:href="#DejaVuSans-69" transform="translate(4590.564453 0)"/>
     <use xlink:href="#DejaVuSans-6e" transform="translate(4618.347656 0)"/>
     <use xlink:href="#DejaVuSans-73" transform="translate(4681.726562 0)"/>
     <use xlink:href="#DejaVuSans-2e" transform="translate(4733.826172 0)"/>
    </g>
   </g>
  </g>
 </g>
 <defs>
  <clipPath id="p8a86ce94ad">
   <rect x="7.2" y="7.2" width="900" height="352.8"/>
  </clipPath>
 </defs>
</svg>
